<?xml version="1.0" encoding="UTF-8"?>
<!DOCTYPE svg PUBLIC "-//W3C//DTD SVG 1.0//EN" "http://www.w3.org/TR/2001/REC-SVG-20010904/DTD/svg10.dtd">
<!-- Creator: CorelDRAW 2018 (64-Bit Evaluation Version) -->
<svg xmlns="http://www.w3.org/2000/svg" xml:space="preserve" width="91.44mm" height="91.44mm" version="1.0" style="shape-rendering:geometricPrecision; text-rendering:geometricPrecision; image-rendering:optimizeQuality; fill-rule:evenodd; clip-rule:evenodd"
viewBox="0 0 9144 9144"
 xmlns:xlink="http://www.w3.org/1999/xlink">
 <defs>
  <style type="text/css">
   <![CDATA[
    .str0 {stroke:#2B2A29;stroke-width:20;stroke-miterlimit:22.9256}
    .fil2 {fill:#FEFEFE}
    .fil4 {fill:#434242}
    .fil0 {fill:#2B2A29}
    .fil3 {fill:#FD4D00}
    .fil1 {fill:#FE4D01}
   ]]>
  </style>
 </defs>
 <g id="Layer_x0020_1">
  <metadata id="CorelCorpID_0Corel-Layer"/>
  <g id="_2674864569840">
   <rect class="fil0 str0" x="50.8" y="42.33" width="9008.53" height="9008.54"/>
   <g>
    <path class="fil1" d="M2457.54 5486.07c18.81,70.53 122.35,24.39 33.87,-25.39l-15.54 8.3c-11.37,7.99 -6.05,-0.56 -18.33,17.09z"/>
    <g>
     <path class="fil1" d="M5082.16 5613.88c0.02,-47.21 41.55,-16.56 67.76,-50.78 -19.79,-24.34 -36.25,-6.62 -50.81,8.44 -51.84,-19.36 36.94,21.64 -14.65,-9.8l-9.35 -6c-42.49,-16.65 -26.8,31.63 -26.84,168.19l33.86 0.01 0.03 -110.06z"/>
     <g>
      <path class="fil1" d="M2474.45 5549.56l33.87 0.01 -0.05 173.58 -33.87 -0.01 0.05 -173.58zm-16.93 12.71l-0.06 169.33 67.73 0.02 0.06 -194.73 -42.33 -0.01c-19.51,-0.01 -25.4,5.88 -25.4,25.39z"/>
      <g>
       <g>
        <path class="fil2" d="M6250.91 4462.76c0,23.19 40.98,44.11 49.93,119.4 13.84,116.45 -20.43,388.46 9.15,515.62 78.33,0.03 228.59,17.12 228.61,-25.33l0.15 -508c0.03,-98.94 -71.1,-248.89 -160.78,-296.38 -22.45,33.51 -30.26,68.2 -55.58,105.31 -17.06,24.98 -71.47,62.44 -71.48,89.38z"/>
        <path class="fil1" d="M2048.3 5443.61l-46.51 -0.02 -0.62 255.06c7.74,31.47 -4.43,17.79 24.5,29.97 26.88,-11.96 11.27,5.22 21.19,-22.18 0.83,-2.26 2.4,-29.87 2.39,-33.69l-0.95 -229.14z"/>
        <path class="fil1" d="M5082.16 5613.88l-0.03 110.06 -33.86 -0.01c0.04,-136.56 -15.65,-184.84 26.84,-168.19l9.35 6c51.59,31.44 -37.19,-9.56 14.65,9.8 14.56,-15.06 31.02,-32.78 50.81,-8.44 -26.21,34.22 -67.74,3.57 -67.76,50.78zm-42.37 118.51l59.27 0.02c0.05,-149.95 -6.05,-150.69 59.31,-135.45 0.84,-37.2 5.73,-26.37 8.48,-59.26l-127 -0.04 -0.06 194.73z"/>
        <path class="fil1" d="M6132 5718.65l-35.27 -2.86c7.79,-23.23 0.2,-13.07 18.35,-25.4 17.66,12.96 13.74,0.63 16.92,28.26zm0 0c8.15,-7.44 8.46,17.9 8.48,-36.72l-33.54 -9.51c-12.67,9.3 -32.09,16.02 -25.44,42.16 2.91,11.41 5.76,15.56 17.93,18.34 41.43,9.42 32.25,-13.94 32.57,-14.27z"/>
        <path class="fil1" d="M4472.58 5562.89l-0.06 169.33 59.27 0.02c0.03,-90.87 -10.43,-99.29 16.98,-143.93 55.31,11.31 42.33,18.01 42.29,143.95l67.73 0.02c0.02,-46.44 -9.01,-101.33 8.52,-143.93 22.86,1.91 23.03,3.98 42.33,8.47l-0.05 135.47 59.27 0.02c0.04,-132.24 20.14,-194.72 -84.61,-194.76 -33.14,-0.01 -31.13,13.52 -50.8,13.46 -33.46,-0.11 17.88,-12.02 -93.1,-10.59l-18.93 -1.63c-28.8,-1.97 -48.83,-5.83 -48.84,24.1z"/>
        <path class="fil1" d="M1517.73 5528.11c-0.04,114.08 124.78,44.94 143.89,127.05 -42.04,28.14 -70.87,23.44 -118.53,-8.51l-35.45 40.85c60.08,71.24 221.69,61.35 221.72,-49.25 0.04,-113.79 -143.92,-50.09 -143.9,-127.05 42.68,-23.96 91.75,4.23 110.07,8.5 24.91,-37.18 45.25,-36.44 3.81,-61.5 -52.05,-31.46 -181.59,-22 -181.61,69.91z"/>
        <path class="fil1" d="M5607.06 5732.57l59.26 0.02c6.39,-27.39 14.41,-37.14 16.97,-67.73l16.93 0.01c1.69,77.31 21.18,67.73 76.17,67.75 1.39,-61.38 42.38,-138.5 42.39,-194.72l-50.8 -0.01c-10.44,21.76 -22.95,63.42 -25.42,93.12l-25.38 -93.14 -50.8 -0.01c-3.6,43.14 -18.99,78.98 -22.63,87.45 -0.54,1.26 -1.66,3.89 -2.79,5.67 -7.27,-31.21 -17.65,-59.94 -25.38,-93.14l-50.8 -0.02c0.78,35.57 11.95,65.4 21.73,98.03l20.55 96.72z"/>
        <path class="fil2" d="M1170.53 5731.21l59.26 0.02c0.04,-131.34 -13.74,-152.5 59.32,-135.46 13.98,60.11 8.45,63.57 8.42,135.48l59.26 0.01c0.04,-129.32 16.03,-219.56 -126.94,-186.3l0.03 -101.6 -59.26 -0.02 -0.09 287.87z"/>
        <path class="fil1" d="M3964.59 5503.46l93.14 0.03 -0.07 228.6 67.73 0.02 0.07 -228.6 93.13 0.03c0.03,-85.78 31.09,-59.26 -253.98,-59.35l-0.02 59.27z"/>
        <path class="fil1" d="M2279.66 5731.55l0.66 -145.16c-2.82,-63.29 1.59,-26.49 -9.07,-32.69 -1.2,-1.52 7.29,-29.32 -40.31,-16.72 -43.61,11.56 -1.51,96.19 -23.62,132.1 -21.81,35.43 -46.13,2.55 -52.06,-24.66 -6.82,-31.26 -2.55,-74.56 -2.54,-107.64l-59.27 -0.02c-0.03,114.25 -17.9,199.56 98.3,193.37l87.91 1.42z"/>
        <path class="fil2" d="M4777.84 4055.91c-0.05,148.11 75.66,312.4 182.32,393.36 88.21,66.96 212.75,86.33 270.76,-16.24 63.07,-111.47 -91.54,-182.89 117.39,-322.91 138.96,-93.14 384.46,-85.64 511.27,32.76 111.72,104.32 61.19,121.87 61.16,243.58 -0.04,126.89 218.54,192.3 367.69,-21.65 212.38,-304.64 2.49,-742.56 -147.31,-782.61 -22.45,16.44 -63.58,98.33 -91.05,129.1 -273.25,306.09 -749.92,279.22 -977.58,-59.89 -15.62,-23.26 -30.2,-55.79 -48.97,-69.55 -39.91,10.65 -74.05,48.64 -99.25,78.54 -27.67,32.83 -49.31,68.44 -67.83,109.98 -32.5,72.86 -78.58,199.94 -78.6,285.53z"/>
        <path class="fil2" d="M2618.66 4630.99l0.11 -355.6c0.09,-283.37 286.42,-250.72 357.94,-179.97 31.2,30.86 56.96,86.07 56.94,146.23l-0.13 440.27c-0.03,95.92 -82.21,186.23 -177.86,186.2 -71.42,-0.02 -142.19,-1.38 -190.06,-72.43 -29.66,-44.03 -46.96,-94.97 -46.94,-164.7zm-253.88 -372.62c-0.06,175.6 -20.07,438.64 37.1,580.8 168.1,418.02 893.95,352.15 894.12,-207.97 0.07,-235.16 36.18,-508.45 -103.73,-675.03 -184.09,-219.19 -827.33,-230.19 -827.49,302.2z"/>
        <path class="fil2" d="M1534.93 4639.12l0.11 -372.53c0.09,-288.3 305.8,-235.14 361.05,-166.16 27.72,34.59 53.85,90.3 53.83,149.36l-0.13 406.4c-0.03,109.86 -69.92,211.63 -177.86,211.6 -75.63,-0.02 -135.35,3.44 -191.5,-71 -30.51,-40.45 -45.52,-90.53 -45.5,-157.67zm-253.88 -406.48l-0.13 440.27c-0.14,450.25 584.45,551.29 806.35,298.69 155.72,-177.26 125.02,-388.47 125.1,-645.53 0.05,-182.42 -38.39,-317.95 -154.07,-413.14 -162.49,-133.72 -493.96,-136.98 -656.54,25.5 -50.94,50.91 -49.78,51.89 -81.27,121.93 -21.63,48.1 -39.42,106.81 -39.44,172.28z"/>
        <path class="fil2" d="M4083.44 4495.97l-364.07 -0.11 0.13 -414.87c161.09,0.05 366.51,-24.42 469.56,47.04 100.11,69.44 96.38,248.94 15.33,319.58 -24.94,21.73 -77.37,48.37 -120.95,48.36zm-609.78 600.94l220.13 0.07c19.51,0.01 25.4,-5.88 25.41,-25.39l0.1 -330.2c144.55,0.04 370.15,12.64 495.69,-29.1 29.18,-9.7 59.44,-19.84 83.71,-34.8 233.05,-143.72 270.68,-433.29 150.93,-632.13 -61.71,-102.48 -195.54,-192.81 -340.59,-192.85l-635 -0.2 -0.38 1244.6z"/>
        <path class="fil2" d="M6894.32 4666.16c0.04,-140.12 95.6,-253.97 211.74,-253.93l50.8 0.01c102.64,0.03 211.64,108.79 211.6,211.74 -0.02,76.57 -2.8,148.29 -70.1,209.33 -156.72,142.17 -404.1,23.82 -404.04,-167.15zm491.18 -372.38c-38.35,-10.25 -38.81,-38.48 -109.98,-67.82 -276.75,-114.11 -609.68,50.98 -609.79,397.8 -0.04,132.98 8.66,186.62 73.37,299.09 60.92,105.87 197.11,192.05 341.34,192.1 273.12,0.08 237.64,-89.79 313.31,-109.97 -0.04,115.48 -2.03,93.13 203.17,93.2 19.51,0 25.4,-5.89 25.41,-25.4l0.37 -1219.2c-289.22,-0.08 -237.05,-48.97 -237.13,203.13 -0.03,79.03 -0.05,158.05 -0.07,237.07z"/>
        <path class="fil2" d="M7978.04 4691.89c0.03,-100.69 3.56,-229.42 139.08,-275.83 353.6,-121.13 446.32,345.26 214.09,459.82 -153.9,75.92 -353.21,-33.44 -353.17,-183.99zm-237.04 -76.27c-0.05,136.97 8.5,201.25 67.88,304.58 36.37,63.29 98.54,128.42 172.36,157.83 133.31,53.14 261.24,62 391.9,-7.74 50.14,-26.76 58.69,-48.56 95.88,-73.45l5.61 93.38c81.31,-0.43 222.96,16.71 222.97,-25.58l0.26 -855.13c-266.29,-0.08 -228.59,-19.77 -228.62,84.6 -55.56,-14.84 -130.39,-180.93 -463.87,-74.56 -49.66,15.84 -99.19,49.31 -135.4,84.72 -65.35,63.9 -128.93,185.21 -128.97,311.35z"/>
        <path class="fil2" d="M5226.44 4496.32c181.26,270.87 -155.5,551.75 -370.87,336.79 -77.96,-77.81 -91.35,-225.43 -37.58,-313.56 20.94,-34.34 48.99,-51.55 69.8,-82.6 -9.35,-35.05 -80.32,-95.07 -101.54,-186.29 -62.86,1.38 -126.11,74.59 -157.68,121.7 -140.62,209.83 -105.17,668.85 254.31,738.56 344.77,66.83 386.82,-172.5 401.57,-81.51 14.17,87.41 -48.17,68.04 221.21,68.13 20.67,-88.61 8.68,-713.8 8.72,-855.13 0.01,-19.51 -5.88,-25.4 -25.39,-25.41l-203.2 -0.06 -8.25 161.13c-2.64,61.68 -29.59,77.63 -51.1,118.25z"/>
        <path class="fil2" d="M442.94 3944.52l-0.3 990.6c-0.03,89.11 47.83,152.41 135.42,152.44l508 0.15c153.32,0.05 161.84,-221.83 8.93,-228.99l-331.09 0.79c-91.63,1.57 -67.24,17.86 -67.16,-262.98l0.77 -660.96c-0.41,-166.04 -254.52,-155.98 -254.57,8.95z"/>
        <path class="fil1" d="M459.47 5273.79c9.66,14.44 18.41,33.88 42.32,33.88 251.04,0.08 1998.84,12.09 2127.45,-5.51 71.42,-9.75 1445.9,-4.03 1682.63,-1.72 102.97,1.01 93.05,15.82 93.09,-93.17 -339.5,-0.11 -651.31,8.26 -990.61,8.16 -335.84,-0.11 -671.69,-0.21 -1007.53,-0.31l-1744.13 7.93c-105.66,-0.03 -184.24,-20.24 -203.22,50.74z"/>
        <path class="fil1" d="M4371.66 3344.6l-0.04 101.6c117.79,0.03 110.06,93.34 109.71,220.45 -0.15,54.28 9.21,104.65 36.55,132.76 49.85,51.26 122.12,44.8 192.29,44.82l0.04 -118.54c-41.56,-0.01 -57.45,-3.89 -84.67,-16.95 -32.06,-137.83 18.55,-247 -93.03,-321.76 26.59,-39.67 73.32,-60 76.56,-185.95 3.25,-125.97 -29.53,-169.64 101.35,-169.6l0.04 -118.53c-140.05,-0.04 -230.32,6.05 -228.76,194.56 2.6,314.53 -110.02,158.96 -110.04,237.14z"/>
        <path class="fil1" d="M6463.02 3031.97c33.07,0.01 62.9,6.51 84.67,16.96 31.44,135.16 -24.34,268.08 93.03,330.22 -26.35,35.94 -73.62,37.04 -84.34,178.17 -8.83,116.18 33.54,168.95 -93.57,168.91l-0.04 118.54c301.22,0.09 186.35,-135.22 230.77,-328.06 11.19,-48.53 38.13,-68.43 99.55,-69.77l0.04 -101.6c0.01,-48.42 -63.69,1.38 -93.73,-75.62 -13.44,-34.45 -16.72,-109.82 -16.18,-161.57 1.86,-180.73 -74,-194.67 -220.16,-194.71l-0.04 118.53z"/>
        <path class="fil2" d="M4972.9 3006.11c-0.01,30.29 18.49,90 30.84,113.07l35.83 48.82c1.27,1.19 3.13,2.88 4.45,4.02l30.42 20.39c45.19,-30.24 41.14,-50.4 106.01,-105.65 14.04,-11.95 6.47,-5.98 17.57,-16.3 6.93,-6.44 16.22,-14.64 22.66,-19.68 47.87,-37.57 127.74,-89.26 200.97,-95.33 0.01,-47.71 -5.61,-74.07 -56.8,-120.99 -141,-129.2 -391.89,-32.64 -391.95,171.65z"/>
        <path class="fil2" d="M5743.31 2961.97c95.25,7.96 210.97,93.89 273.17,158.66 30.4,31.65 36.16,53.23 73.9,78.51 36.2,-19.14 47.89,-32.9 67.66,-67.8 53.89,-95.16 42.19,-195.46 -27.41,-277.14 -115.98,-136.11 -387.27,-61.67 -387.32,107.77z"/>
        <path class="fil1" d="M8587.82 4124.82c256.71,0.08 232.76,-347.07 8.57,-347.14 -96.99,-0.03 -170.36,77.77 -175.65,171.02 -4.98,87.68 76.93,176.09 167.08,176.12z"/>
        <path class="fil2" d="M459.4 5502.39l93.13 0.03 -0.07 228.6 67.73 0.02 0.07 -228.6c103.12,0.03 93.14,10.11 93.16,-59.24l-254 -0.08 -0.02 59.27z"/>
        <path class="fil2" d="M831.91 5587.17l8.47 0.01c23.42,0 20.36,6.53 25.39,25.4l-67.74 -0.02c8.83,-13.17 11.24,-25.39 33.88,-25.39zm-93.14 33.84c-0.04,115.66 99.56,137.06 177.77,84.72l-26.84 -32.57c-55.65,1.98 -61.86,26.3 -91.68,-18.27 30.82,0.01 135.46,11.74 135.47,-16.89 0.05,-143.19 -194.69,-123.84 -194.72,-16.99z"/>
        <path class="fil1" d="M1814.02 5638.27c6.04,-25.88 13.19,-32.53 25.42,-50.79l42.29 0.02c0.04,0.07 85.53,93.15 -42.32,93.11 -0.48,-0.71 -24.97,-41.86 -25.39,-42.34zm-50.79 -16.95c-0.05,157.03 203.16,139.05 203.2,8.53 0.01,-50.34 -51,-93.14 -76.18,-93.15 -54.89,-0.02 -127,7.64 -127.02,84.62z"/>
        <path class="fil1" d="M4294.75 5647.49c0.03,-84.5 93.16,-71.21 93.14,-8.43 -0.02,61.11 -93.15,46.21 -93.14,8.43zm-50.79 -25.41c-0.06,199.93 280.2,101.44 181.94,-46.34 -48.35,-72.72 -181.92,-39.14 -181.94,46.34z"/>
        <path class="fil1" d="M5463.14 5681.72c-83.68,-0.02 -77.01,-41.35 -42.3,-93.14l42.33 0.01c31.97,47.78 35.74,41.7 -0.03,93.13zm-118.51 -59.3c-0.05,166.56 194.69,115.92 194.72,42.4 0.01,-36.25 3.95,-68.46 -20.18,-98.34 -42.65,-52.79 -174.51,-39.91 -174.54,55.94z"/>
        <path class="fil1" d="M4912.81 5681.55c-67.95,-0.02 -67.92,-93.15 0.03,-93.13 52.75,0.02 52.72,93.15 -0.03,93.13zm-101.58 -59.3c-0.05,161.92 194.69,128.24 194.72,25.46 0.05,-161.84 -194.69,-131.46 -194.72,-25.46z"/>
        <path class="fil2" d="M3507.36 5630.32c0.01,-53.94 93.15,-60.75 93.13,8.5 -0.01,52.32 -56.31,40.45 -84.68,33.84 -4.41,-18.99 -8.46,-19.47 -8.45,-42.34zm-50.8 -8.48c-0.05,149.5 194.69,149.56 194.74,0.06 0.03,-112.82 -194.71,-112.88 -194.74,-0.06z"/>
        <path class="fil2" d="M3295.71 5579.46l25.4 0.01 -0.05 152.4c86.12,0.02 67.73,14.8 67.78,-152.38l25.4 0.01c0.01,-44.49 9.36,-41.52 -25.38,-50.81l0.01 -33.87c68.66,0.02 105.38,-50.77 0.01,-50.8 -63.52,-0.02 -51.36,39.74 -77.87,82.99 -10.2,16.63 -15.29,8.47 -15.3,52.45z"/>
        <path class="fil2" d="M958.9 5621.07c-0.05,143.34 161.41,129.02 177.78,67.8 -72.33,-19.33 -11.79,-8.48 -84.67,-8.5 -52.75,-0.01 -52.72,-93.14 0.03,-93.13 36.28,0.01 25.25,14.18 49.06,10.72 12.72,-1.85 28.98,-18.58 35.61,-27.63 -45.78,-62.52 -177.78,-37.7 -177.81,50.74z"/>
        <path class="fil1" d="M5192.25 5563.11l-0.06 169.33 59.27 0.02c0.01,-27.87 -3.06,-76.96 -0.39,-102.13 5.28,-50 26.5,-41.06 59.7,-33.32l10.9 -58.84c-22.81,-0.43 -31.85,1.21 -49.69,2.94 -33.67,3.25 -79.72,-20.95 -79.73,22z"/>
        <path class="fil2" d="M3685.12 5731.98l59.27 0.02c0.06,-193.72 4.67,-119.72 48.43,-143.06 13.88,-7.4 8.98,11.63 13.98,-23.23 6.9,-48.24 -22.13,-22.37 -61.25,-23.5 -11.65,-0.34 -36.68,-4.95 -60.37,-4.96l-0.06 194.73z"/>
        <path class="fil1" d="M5962.67 5698.81c-0.01,38.7 44.15,33.89 59.25,33.84 32.02,-82.23 -59.24,-59.92 -59.25,-33.84z"/>
        <path class="fil1" d="M5866.68 5715.76c-0.71,-5.79 -2.12,-6.95 0.37,-14.12 4.89,-14 4.64,-6.96 10.96,-12.73 17.45,14.75 11.14,2.63 16.71,30.42l-28.04 -3.57zm0 0c2.7,31.41 -12.16,9.14 12.99,16.48 41.62,12.14 32.21,-43.61 32.21,-50.38l-33.54 -9.51c-8.7,6.64 -18.94,9.25 -23.54,22.51 -15.01,43.17 9.27,20.39 11.88,20.9z"/>
       </g>
       <g>
        <g>
         <path class="fil1" d="M2779.25 5562.37l-0.06 169.33 59.27 0.02c0.02,-39.31 -8.36,-143.93 25.45,-143.92 58.34,0.01 42.3,88.13 42.28,143.94l59.27 0.02c0.06,-186.55 8.07,-119.52 -42.28,-194.75l-76.2 4.35c-19.79,-0.05 -67.72,-20.63 -67.73,21.01z"/>
         <path class="fil1" d="M2601.43 5630.05c63.52,-119.96 151.69,50.84 42.31,50.81 -33.66,-0.01 -33.3,-30.63 -42.31,-50.81zm-50.8 -8.49c-0.05,157.03 203.16,139.05 203.2,8.53 0.03,-127.82 -203.17,-119.95 -203.2,-8.53z"/>
         <path class="fil1" d="M2999.37 5596.3c-0.02,50.25 38.91,66.45 93.12,67.77l-0.01 16.93c-56.31,11.91 -74.97,-37.15 -93.15,25.37 22.52,30.74 36.1,25.41 84.66,25.42 89.45,0.03 95.45,-124.28 -25.36,-127l0.01 -16.93c40.44,0.01 35.11,5.76 67.73,8.48 9.24,-17.45 11.75,-20.06 16.95,-42.33 -59.94,-34.64 -143.94,-17.05 -143.95,42.29z"/>
         <path class="fil1" d="M2330.54 5486.03c-0.02,50.99 12.19,46.69 -25.42,50.8l-0.01 50.8 25.4 0c-0.02,62.76 -9.87,120.81 39.38,140.3 58,22.93 84.37,-15.55 56.82,-40.28 -8.92,-7.99 -24.13,-9.17 -36.97,-15.34l0.03 -84.66c50.86,-4.21 50.87,-46.55 0.01,-50.8l0.02 -59.27c-18.19,0.81 -20.32,3.34 -30.38,4.86l-28.88 3.59z"/>
         <path class="fil1" d="M2474.4 5723.14l33.87 0.01 0.05 -173.58 -33.87 -0.01 -0.05 173.58z"/>
         <path class="fil3" d="M2048.3 5443.61l0.95 229.14c0.01,3.82 -1.56,31.43 -2.39,33.69 -9.92,27.4 5.69,10.22 -21.19,22.18 -28.93,-12.18 -16.76,1.5 -24.5,-29.97l0.62 -255.06c-23.77,17.5 -9.99,259.46 -10,287.87l59.27 0.02 -2.76 -287.87z"/>
        </g>
        <path class="fil2" d="M5666.78 4233.99l-0.25 838.2c-0.02,43.6 83.59,25.42 203.19,25.46 42.45,0.01 25.44,-150.26 25.47,-228.59 0.07,-234.71 -22.74,-174.38 34.82,-355.65 12.09,-38.09 -13.7,-45.72 -32.47,-86.83 -17.12,-37.57 -10,-67.64 -10.31,-116.67 -0.77,-125.81 -6.77,-101.26 -195.04,-101.32 -19.51,0 -25.4,5.89 -25.41,25.4z"/>
        <ellipse class="fil2" transform="matrix(1.38356 0.0142899 -0.0111089 1.07557 5584.66 3437.73)" rx="380.23" ry="416.26"/>
        <g>
         <path class="fil4" d="M5499.62 3622.36c-0.01,35.6 35.25,70.01 63.41,77.53l-0.02 49.34c-29.26,-6.83 -28.9,-10.27 -51.36,-20.75 -88.67,-41.41 10.03,138.93 142.06,55.11 23.63,-14.99 35.31,-25.02 36.16,-62.52 -37.61,3.12 -91.63,48.43 -91.62,14.08 0.01,-54.22 70.49,-51.48 70.51,-112.74 0.02,-56.49 -169.12,-56.54 -169.14,-0.05z"/>
         <path class="fil0" d="M5415.13 3389.77c39.8,0.01 10.25,46.27 -8.85,47.62 -33.43,2.36 -17.71,-47.63 8.85,-47.62zm-190.31 91.56c-0.05,157.24 189.96,162.32 264.52,3.85 47.41,-100.79 -19.72,-187 -60.09,-187.02 -87.75,-0.02 -87.81,0.09 -149.9,61.49 -27.01,26.71 -54.51,71.34 -54.53,121.68z"/>
         <path class="fil0" d="M5753.4 3389.87c26.69,0.01 41.47,49.43 9.85,46.58 -24.59,-2.22 -47.47,-46.59 -9.85,-46.58zm-84.57 7.03l-0.01 35.23c-0.04,123.24 173.13,221.53 245.04,139.46 85.89,-98.03 -33.16,-273.29 -125.2,-273.32 -41.3,-0.01 -70.87,-5.16 -100.24,33.64 -11.53,15.24 -19.58,39.63 -19.59,64.99z"/>
        </g>
       </g>
      </g>
     </g>
    </g>
   </g>
  </g>
 </g>
</svg>
